<svg version="1.1" id="Layer_1" xmlns="http://www.w3.org/2000/svg" x="0" y="0" viewBox="0 0 160 160" style="enable-background:new 0 0 160 160" xml:space="preserve"><style>.st0{fill:#4259c3;stroke:#fff;stroke-width:6;stroke-miterlimit:10}</style><path class="st0" d="M.21 33.38v88.88s-4.84 30.61 31.85 37.75h89.33s35 2.55 38.57-32.61V33.39S158.43 2.04 124.29 0H36.04S3.52 0 .21 33.38z"/><path d="M21.36 51.98v54.67s-1.02 27.37 27.52 31.96c31.08 1.53 61.85 0 61.85 0s23.25-2.04 28.35-28.03V49.41S135 22.43 108.51 21.92s-56.58 0-56.58 0-28.02-.52-30.57 30.06z" style="fill:#4259c3;stroke:#fff;stroke-width:7;stroke-miterlimit:10"/><circle class="st0" cx="79.96" cy="80.51" r="30.06"/><circle cx="111.55" cy="47.9" r="7.13" style="fill:none;stroke:#fff;stroke-width:3;stroke-miterlimit:10"/></svg>