<?xml version="1.0" encoding="utf-8"?>
<!-- Generator: Adobe Illustrator 26.3.1, SVG Export Plug-In . SVG Version: 6.00 Build 0)  -->
<svg version="1.1" id="Layer_1" xmlns="http://www.w3.org/2000/svg" xmlns:xlink="http://www.w3.org/1999/xlink" x="0px" y="0px"
	 viewBox="0 0 160 160" style="enable-background:new 0 0 160 160;" xml:space="preserve">
<style type="text/css">
	.st0{fill:#4259C3;stroke:#FFFFFF;stroke-width:6;stroke-miterlimit:10;}
	.st1{fill:#4259C3;stroke:#FFFFFF;stroke-width:7;stroke-miterlimit:10;}
	.st2{fill:none;stroke:#FFFFFF;stroke-width:3;stroke-miterlimit:10;}
</style>
<path class="st0" d="M0.21,33.38v88.88c0,0-4.84,30.61,31.85,37.75c87.13,0,89.33,0,89.33,0s35,2.55,38.57-32.61
	c0-35.16,0-94.01,0-94.01S158.43,2.04,124.29,0C90.15,0,36.04,0,36.04,0S3.52,0,0.21,33.38z"/>
<path class="st1" d="M21.36,51.98v54.67c0,0-1.02,27.37,27.52,31.96c31.08,1.53,61.85,0,61.85,0s23.25-2.04,28.35-28.03
	c0-27.01,0-61.17,0-61.17s-4.08-26.98-30.57-27.49s-56.58,0-56.58,0S23.91,21.4,21.36,51.98z"/>
<circle class="st0" cx="79.96" cy="80.51" r="30.06"/>
<circle class="st2" cx="111.55" cy="47.9" r="7.13"/>
<g>
</g>
<g>
</g>
<g>
</g>
<g>
</g>
<g>
</g>
<g>
</g>
<g>
</g>
<g>
</g>
<g>
</g>
<g>
</g>
<g>
</g>
<g>
</g>
<g>
</g>
<g>
</g>
<g>
</g>
</svg>
